<svg version="1.1" xmlns="http://www.w3.org/2000/svg" viewBox="0 0 143.77734375 143.77734375" width="287.5546875" height="287.5546875">
  <!-- svg-source:excalidraw -->
  
  <defs>
    <style>
      @font-face {
        font-family: "Virgil";
        src: url("https://excalidraw.com/Virgil.woff2");
      }
      @font-face {
        font-family: "Cascadia";
        src: url("https://excalidraw.com/Cascadia.woff2");
      }
    </style>
  </defs>
  <rect x="0" y="0" width="143.77734375" height="143.77734375" fill="#ffffff"></rect><g stroke-linecap="round" transform="translate(10 10) rotate(0 61.888671875 61.888671875)"><path d="M7.58 7.91 C7.58 7.91, 7.58 7.91, 7.58 7.91 M7.58 7.91 C7.58 7.91, 7.58 7.91, 7.58 7.91 M2.47 25.99 C10.89 16.31, 19.31 6.62, 24.12 1.09 M2.47 25.99 C10.75 16.47, 19.03 6.94, 24.12 1.09 M5.22 35.02 C16.48 22.07, 27.73 9.12, 33.43 2.56 M5.22 35.02 C16.11 22.49, 26.99 9.97, 33.43 2.56 M4.7 47.81 C18.18 32.31, 31.65 16.8, 44.06 2.53 M4.7 47.81 C13.37 37.84, 22.03 27.87, 44.06 2.53 M4.83 59.85 C17.04 45.81, 29.25 31.76, 54.69 2.49 M4.83 59.85 C21.23 40.99, 37.63 22.12, 54.69 2.49 M4.97 71.89 C28.37 44.97, 51.77 18.06, 65.32 2.46 M4.97 71.89 C17.79 57.14, 30.62 42.39, 65.32 2.46 M5.1 83.93 C25.12 60.91, 45.14 37.88, 75.95 2.42 M5.1 83.93 C23.05 63.29, 41 42.64, 75.95 2.42 M1.3 100.5 C22.32 76.31, 43.35 52.12, 86.58 2.39 M1.3 100.5 C30.37 67.06, 59.44 33.61, 86.58 2.39 M4.71 108.77 C39.37 68.9, 74.03 29.02, 96.56 3.11 M4.71 108.77 C31.96 77.42, 59.22 46.07, 96.56 3.11 M8.12 117.04 C40.63 79.64, 73.14 42.25, 107.19 3.08 M8.12 117.04 C37.78 82.92, 67.43 48.81, 107.19 3.08 M14.82 121.53 C42.97 89.14, 71.13 56.75, 114.54 6.82 M14.82 121.53 C45.67 86.04, 76.51 50.56, 114.54 6.82 M23.48 123.76 C55.22 87.25, 86.96 50.73, 119.92 12.82 M23.48 123.76 C51.86 91.11, 80.25 58.46, 119.92 12.82 M34.11 123.73 C55.65 98.95, 77.19 74.17, 124.64 19.58 M34.11 123.73 C57.09 97.28, 80.08 70.84, 124.64 19.58 M44.74 123.69 C63.44 102.17, 82.15 80.65, 124.78 31.62 M44.74 123.69 C64.33 101.16, 83.91 78.62, 124.78 31.62 M55.37 123.66 C81.24 93.9, 107.1 64.15, 124.91 43.66 M55.37 123.66 C69.66 107.21, 83.96 90.77, 124.91 43.66 M66 123.62 C84.31 102.56, 102.62 81.5, 124.39 56.45 M66 123.62 C88.31 97.96, 110.61 72.3, 124.39 56.45 M76.63 123.59 C90.99 107.07, 105.36 90.54, 124.52 68.49 M76.63 123.59 C93.49 104.2, 110.34 84.8, 124.52 68.49 M87.26 123.55 C99.52 109.45, 111.78 95.35, 124.65 80.54 M87.26 123.55 C96.61 112.79, 105.97 102.03, 124.65 80.54 M95.26 126.54 C104.64 115.76, 114.01 104.97, 124.13 93.33 M95.26 126.54 C106.62 113.47, 117.98 100.41, 124.13 93.33 M111.8 119.71 C115.4 115.56, 119.01 111.42, 122.95 106.88 M111.8 119.71 C115.21 115.79, 118.62 111.87, 122.95 106.88" stroke="#000000" stroke-width="1" fill="none"></path><path d="M30.94 0 M30.94 0 C45.6 0, 60.25 0, 92.83 0 M30.94 0 C52.15 0, 73.35 0, 92.83 0 M92.83 0 C113.46 0, 123.78 10.31, 123.78 30.94 M92.83 0 C113.46 0, 123.78 10.31, 123.78 30.94 M123.78 30.94 C123.78 52.46, 123.78 73.98, 123.78 92.83 M123.78 30.94 C123.78 53.91, 123.78 76.87, 123.78 92.83 M123.78 92.83 C123.78 113.46, 113.46 123.78, 92.83 123.78 M123.78 92.83 C123.78 113.46, 113.46 123.78, 92.83 123.78 M92.83 123.78 C78.63 123.78, 64.43 123.78, 30.94 123.78 M92.83 123.78 C78.49 123.78, 64.15 123.78, 30.94 123.78 M30.94 123.78 C10.31 123.78, 0 113.46, 0 92.83 M30.94 123.78 C10.31 123.78, 0 113.46, 0 92.83 M0 92.83 C0 74.61, 0 56.38, 0 30.94 M0 92.83 C0 72.99, 0 53.15, 0 30.94 M0 30.94 C0 10.31, 10.31 0, 30.94 0 M0 30.94 C0 10.31, 10.31 0, 30.94 0" stroke="#000000" stroke-width="2" fill="none"></path></g><g stroke-linecap="round" transform="translate(23.788738727828104 45.60871381516097) rotate(0 12.572265625 11.1450007117204)"><path d="M5.57 0 L19.57 0 L23.75 1.39 L25.14 5.57 L25.14 16.72 L23.75 20.9 L19.57 22.29 L5.57 22.29 L1.39 20.9 L0 16.72 L0.35 3.13 L1.39 1.39 L5.57 0" stroke="none" stroke-width="0" fill="#fff"></path><path d="M5.57 0 M5.57 0 C9.66 0, 13.74 0, 19.57 0 M5.57 0 C9.28 0, 13 0, 19.57 0 M19.57 0 C23.29 0, 25.14 1.86, 25.14 5.57 M19.57 0 C23.29 0, 25.14 1.86, 25.14 5.57 M25.14 5.57 C25.14 9.13, 25.14 12.68, 25.14 16.72 M25.14 5.57 C25.14 9.01, 25.14 12.45, 25.14 16.72 M25.14 16.72 C25.14 20.43, 23.29 22.29, 19.57 22.29 M25.14 16.72 C25.14 20.43, 23.29 22.29, 19.57 22.29 M19.57 22.29 C15.05 22.29, 10.53 22.29, 5.57 22.29 M19.57 22.29 C15.55 22.29, 11.53 22.29, 5.57 22.29 M5.57 22.29 C1.86 22.29, 0 20.43, 0 16.72 M5.57 22.29 C1.86 22.29, 0 20.43, 0 16.72 M0 16.72 C0 14.03, 0 11.35, 0 5.57 M0 16.72 C0 12.69, 0 8.66, 0 5.57 M0 5.57 C0 1.86, 1.86 0, 5.57 0 M0 5.57 C0 1.86, 1.86 0, 5.57 0" stroke="#000000" stroke-width="2" fill="none"></path></g><g stroke-linecap="round" transform="translate(58.80619981340942 45.33105315094696) rotate(0 12.572265625 11.1450007117204)"><path d="M5.57 0 L19.57 0 L23.75 1.39 L25.14 5.57 L25.14 16.72 L23.75 20.9 L19.57 22.29 L5.57 22.29 L1.39 20.9 L0 16.72 L0.35 3.13 L1.39 1.39 L5.57 0" stroke="none" stroke-width="0" fill="#fff"></path><path d="M5.57 0 M5.57 0 C10.65 0, 15.72 0, 19.57 0 M5.57 0 C11.02 0, 16.46 0, 19.57 0 M19.57 0 C23.29 0, 25.14 1.86, 25.14 5.57 M19.57 0 C23.29 0, 25.14 1.86, 25.14 5.57 M25.14 5.57 C25.14 8.01, 25.14 10.45, 25.14 16.72 M25.14 5.57 C25.14 7.81, 25.14 10.05, 25.14 16.72 M25.14 16.72 C25.14 20.43, 23.29 22.29, 19.57 22.29 M25.14 16.72 C25.14 20.43, 23.29 22.29, 19.57 22.29 M19.57 22.29 C15.65 22.29, 11.72 22.29, 5.57 22.29 M19.57 22.29 C14.89 22.29, 10.21 22.29, 5.57 22.29 M5.57 22.29 C1.86 22.29, 0 20.43, 0 16.72 M5.57 22.29 C1.86 22.29, 0 20.43, 0 16.72 M0 16.72 C0 13.09, 0 9.47, 0 5.57 M0 16.72 C0 12.6, 0 8.49, 0 5.57 M0 5.57 C0 1.86, 1.86 0, 5.57 0 M0 5.57 C0 1.86, 1.86 0, 5.57 0" stroke="#000000" stroke-width="2" fill="none"></path></g><g stroke-linecap="round" transform="translate(93.80619981340942 45.33105315094696) rotate(0 12.572265625 11.1450007117204)"><path d="M5.57 0 L19.57 0 L23.75 1.39 L25.14 5.57 L25.14 16.72 L23.75 20.9 L19.57 22.29 L5.57 22.29 L1.39 20.9 L0 16.72 L0.35 3.13 L1.39 1.39 L5.57 0" stroke="none" stroke-width="0" fill="#fff"></path><path d="M5.57 0 M5.57 0 C10.62 0, 15.66 0, 19.57 0 M5.57 0 C8.85 0, 12.12 0, 19.57 0 M19.57 0 C23.29 0, 25.14 1.86, 25.14 5.57 M19.57 0 C23.29 0, 25.14 1.86, 25.14 5.57 M25.14 5.57 C25.14 8.4, 25.14 11.23, 25.14 16.72 M25.14 5.57 C25.14 9.17, 25.14 12.77, 25.14 16.72 M25.14 16.72 C25.14 20.43, 23.29 22.29, 19.57 22.29 M25.14 16.72 C25.14 20.43, 23.29 22.29, 19.57 22.29 M19.57 22.29 C16.75 22.29, 13.94 22.29, 5.57 22.29 M19.57 22.29 C16.5 22.29, 13.43 22.29, 5.57 22.29 M5.57 22.29 C1.86 22.29, 0 20.43, 0 16.72 M5.57 22.29 C1.86 22.29, 0 20.43, 0 16.72 M0 16.72 C0 14.17, 0 11.61, 0 5.57 M0 16.72 C0 13.59, 0 10.46, 0 5.57 M0 5.57 C0 1.86, 1.86 0, 5.57 0 M0 5.57 C0 1.86, 1.86 0, 5.57 0" stroke="#000000" stroke-width="2" fill="none"></path></g><g stroke-linecap="round" transform="translate(58.80619981340942 75.33105315094696) rotate(0 12.572265625 11.1450007117204)"><path d="M5.57 0 L19.57 0 L23.75 1.39 L25.14 5.57 L25.14 16.72 L23.75 20.9 L19.57 22.29 L5.57 22.29 L1.39 20.9 L0 16.72 L0.35 3.13 L1.39 1.39 L5.57 0" stroke="none" stroke-width="0" fill="#fff"></path><path d="M5.57 0 M5.57 0 C10.18 0, 14.8 0, 19.57 0 M5.57 0 C9.13 0, 12.68 0, 19.57 0 M19.57 0 C23.29 0, 25.14 1.86, 25.14 5.57 M19.57 0 C23.29 0, 25.14 1.86, 25.14 5.57 M25.14 5.57 C25.14 9.2, 25.14 12.82, 25.14 16.72 M25.14 5.57 C25.14 7.82, 25.14 10.06, 25.14 16.72 M25.14 16.72 C25.14 20.43, 23.29 22.29, 19.57 22.29 M25.14 16.72 C25.14 20.43, 23.29 22.29, 19.57 22.29 M19.57 22.29 C15.34 22.29, 11.11 22.29, 5.57 22.29 M19.57 22.29 C16.37 22.29, 13.16 22.29, 5.57 22.29 M5.57 22.29 C1.86 22.29, 0 20.43, 0 16.72 M5.57 22.29 C1.86 22.29, 0 20.43, 0 16.72 M0 16.72 C0 13.36, 0 10, 0 5.57 M0 16.72 C0 13.02, 0 9.33, 0 5.57 M0 5.57 C0 1.86, 1.86 0, 5.57 0 M0 5.57 C0 1.86, 1.86 0, 5.57 0" stroke="#000000" stroke-width="2" fill="none"></path></g></svg>